<svg width="32" height="28" viewBox="0 0 32 28" fill="none" xmlns="http://www.w3.org/2000/svg">
<path d="M5 6C4.44772 6 4 5.55228 4 5C4 4.44772 4.44772 4 5 4H27C27.5523 4 28 4.44772 28 5C28 5.55228 27.5523 6 27 6H5Z" fill="#212529"/>
<path d="M9 2C8.44772 2 8 1.55228 8 1C8 0.447715 8.44772 0 9 0H23C23.5523 0 24 0.447715 24 1C24 1.55228 23.5523 2 23 2H9Z" fill="#212529"/>
<path d="M0 25C0 26.6569 1.34315 28 3 28H29C30.6569 28 32 26.6569 32 25V11C32 9.34315 30.6569 8 29 8H3C1.34315 8 0 9.34315 0 11V25ZM12.5152 12.1254C12.8332 11.9491 13.2217 11.9593 13.53 12.152L21.53 17.152C21.8224 17.3347 22 17.6552 22 18C22 18.3448 21.8224 18.6653 21.53 18.848L13.53 23.848C13.2217 24.0407 12.8332 24.0509 12.5152 23.8746C12.1973 23.6984 12 23.3635 12 23V13C12 12.6365 12.1973 12.3016 12.5152 12.1254Z" fill="#212529"/>
</svg>
